<svg height="512" viewBox="0 0 128 128" width="512" xmlns="http://www.w3.org/2000/svg"><g><rect fill="#2fcffc" height="116" rx="16" width="116" x="6" y="6"/><path d="m95.305 55.407a18.352 18.352 0 0 0 -5.056.722l-6.623-16.929h10.188a2.418 2.418 0 0 1 -.013 4.835 1.75 1.75 0 0 0 0 3.5 5.919 5.919 0 0 0 0-11.837h-.024-16.758a1.75 1.75 0 0 0 0 3.5h2.848l2.568 6.563h-27.5l-2.458-6.561h8.051a1.75 1.75 0 0 0 0-3.5h-14.2a1.75 1.75 0 0 0 0 3.5h2.407l2.983 7.953-9.562 10.894a18.434 18.434 0 1 0 8.813 18.2l6.325.2a6.883 6.883 0 1 0 12.339-5.494l14.882-19.871 2.476 6.327a18.41 18.41 0 1 0 8.314-2zm-42.19-4.536 6.906 18.414a6.908 6.908 0 0 0 -2.621 3.658l-6.315-.2a18.379 18.379 0 0 0 -6.1-12.611zm-5.535 21.764-13.209-.415 8.305-9.46a14.9 14.9 0 0 1 4.904 9.875zm-14.88 16.165a14.946 14.946 0 1 1 7.12-28.085l-10.527 11.985a1.75 1.75 0 0 0 1.261 2.9l16.9.53a14.958 14.958 0 0 1 -14.754 12.67zm31.3-10.517a3.391 3.391 0 0 1 -3.387-3.383v-.019c0-.028.01-.054.011-.083 0 0 0-.01 0-.014a3.382 3.382 0 1 1 3.376 3.499zm2.955-9.6a6.823 6.823 0 0 0 -3.661-.64l-7.042-18.776h25.248zm28.35 20.117a14.941 14.941 0 0 1 -7.037-28.125l5.407 13.815a1.749 1.749 0 0 0 1.63 1.113 1.718 1.718 0 0 0 .637-.121 1.75 1.75 0 0 0 .993-2.267l-5.4-13.807a14.939 14.939 0 1 1 3.77 29.392z" fill="#fff5eb"/></g></svg>